<svg width="77" height="24" viewBox="0 0 77 24" fill="none" xmlns="http://www.w3.org/2000/svg">
<path d="M62.6089 13.7466C57.8294 13.7466 51.848 14.0124 49.8914 14.106C41.7923 11.4094 39.4881 9.87668 38.9699 9.46804C39.6723 8.89265 42.1162 6.70683 42.4635 3.89947C42.6348 2.49391 41.7035 1.44366 39.6949 0.777901C37.6897 0.113242 35.2628 0.0615234 34.5668 0.0615234C32.1264 0.0615234 28.0326 0.454994 28.0326 3.08973C28.0326 5.37579 31.3756 7.80155 32.2997 8.42833C27.431 12.9481 22.2039 16.0421 21.094 16.6785C1.52981 19.027 0 21.2977 0 21.9413C0 23.0977 2.58331 23.7881 6.91012 23.7881C17.4228 23.7881 27.0163 18.1609 28.6026 17.1838C36.069 16.2353 46.0626 15.6478 48.603 15.5077C55.89 17.7208 64.3178 18.3113 67.8174 18.3113C70.4506 18.3113 76.6174 18.3113 76.6174 16.2898C76.6179 14.4126 69.0714 13.7466 62.6089 13.7466ZM62.1022 15.0737C67.7806 15.0737 69.2812 15.6724 69.2812 15.989C69.2812 16.1877 69.0447 16.8358 66.001 16.8358C63.2717 16.8358 58.5595 16.3329 53.9231 15.2417C55.8567 15.1606 58.7177 15.0737 62.1022 15.0737ZM34.2684 1.3479C34.7861 1.3479 35.127 1.40096 35.4081 1.5252C37.0413 2.24773 35.7244 4.60855 34.1216 6.45601C32.5744 4.87192 31.4133 2.44124 33.047 1.58612C33.3663 1.41918 33.7313 1.3479 34.2684 1.3479ZM31.5107 15.4888C33.5666 14.1646 35.8708 12.2349 37.1258 11.1434C39.6375 12.4837 43.0155 13.7281 44.9693 14.4028C38.8861 14.8117 34.2835 15.2201 31.5107 15.4888ZM4.08379 22.1179C3.94836 22.0668 3.92831 21.9588 4.03037 21.8291C4.24436 21.5575 5.88012 20.2111 17.7105 18.5239C16.0166 19.3746 13.3683 20.5902 10.4591 21.4983C8.4112 22.1094 6.81659 22.4193 5.7194 22.4193C5.32689 22.4193 4.78607 22.3851 4.08379 22.1179Z" fill="#8C8888"/>
</svg>
