<svg width="187" height="9" viewBox="0 0 187 9" fill="none" xmlns="http://www.w3.org/2000/svg">
<path d="M94.2249 3.25164C94.3388 2.55423 95.1243 1.98432 96.3516 1.53971V0.947266H94.7203C91.4231 0.947266 88.6317 1.34956 87.009 2.25856H86.9141V1.04729H78.457V8.43415H86.9158V5.45215C86.9158 4.18647 88.0793 3.22141 92.7731 3.22141C93.284 3.22251 93.7622 3.23186 94.2249 3.25164Z" fill="#8C8888"/>
<path d="M158.268 3.22526C158.971 2.57236 160.11 1.99091 161.591 1.52432V0.947266H159.963C156.664 0.947266 153.876 1.34956 152.245 2.25801H152.154V1.04784H143.691V8.4347H152.154V5.45269C152.154 4.18702 153.321 3.22196 158.014 3.22196L158.268 3.22526Z" fill="#8C8888"/>
<path d="M111.402 2.94816C110.097 2.73218 108.281 2.58819 106.836 2.58819C105.866 2.58819 104.19 2.71679 104.19 3.09215C104.19 3.59666 106.836 3.6681 108.006 3.74175C111.949 3.98576 114.932 4.56227 114.932 5.92851C114.932 7.87182 109.213 8.68079 103.677 8.68079C100.281 8.68079 96.941 8.37798 94.0547 7.8306L97.1223 6.00051C98.8399 6.37642 101.723 6.74958 103.815 6.74958C104.885 6.74958 106.465 6.59185 106.465 6.18846C106.465 5.61251 103.815 5.58228 101.162 5.36685C98.5154 5.15086 95.869 4.74857 95.869 3.42354C95.869 1.60884 101.162 0.803711 106.379 0.803711C109.075 0.803711 111.773 0.932861 114.231 1.27855L111.402 2.94816Z" fill="#8C8888"/>
<path d="M186.958 8.43428H178.499V7.61266H178.406C176.918 8.3469 173.983 8.67774 171.199 8.67774C164.128 8.67774 159.158 6.84875 159.158 4.73178C159.158 2.61701 164.04 0.801758 171.104 0.801758C173.845 0.801758 176.732 1.11831 178.498 1.76572V1.04742H186.955L186.958 8.43428ZM167.898 4.74772C167.898 5.6831 169.901 6.40304 173.336 6.40304C176.775 6.40304 178.769 5.6842 178.769 4.74772C178.769 3.84037 176.775 3.07755 173.336 3.07755C169.901 3.0781 167.898 3.84037 167.898 4.74772Z" fill="#8C8888"/>
<path d="M142.356 5.18109H124.546C124.546 6.24562 126.364 6.82103 129.849 6.82103C131.662 6.82103 132.961 6.63472 133.894 6.1445H142.031C140.683 7.8872 135.335 8.67914 129.897 8.67914C122 8.67914 116.096 7.29586 116.096 4.74857C116.096 2.28647 121.528 0.803711 129.291 0.803711C137.565 0.803711 142.359 2.38814 142.359 4.90685L142.356 5.18109ZM134.498 3.6681C134.078 2.96245 131.986 2.5019 129.711 2.5019C127.244 2.5019 125.207 2.90364 124.687 3.6681H134.498Z" fill="#8C8888"/>
<path d="M51.5501 4.61909C51.5414 4.55534 51.5276 4.49324 51.5121 4.43004V4.42894V4.42784C51.3222 3.74252 50.611 3.10116 49.4043 2.52191C48.8657 2.2636 48.2494 2.02894 47.5606 1.81845C46.5542 1.51014 45.389 1.25513 44.0753 1.05344C42.0987 0.752819 39.9149 0.601136 37.5845 0.601136C37.3566 0.601136 37.1184 0.602235 36.8784 0.604983C35.2419 0.628614 33.6589 0.727538 32.1709 0.901754C30.6707 1.07432 29.3639 1.3024 28.2954 1.57608C28.0778 1.63104 27.8413 1.69864 27.5876 1.77283L27.4046 1.82999L27.1543 1.91462H27.156H27.1577L27.0404 1.95145L26.9834 1.97123L26.6847 2.07125C26.4638 2.15039 26.2532 2.22953 26.0564 2.30702L26.0546 2.30592L26.0477 2.30372C25.6386 2.462 25.2606 2.62578 24.9826 2.77306C24.7945 2.86759 24.6098 2.96486 24.4337 3.06214L21.9944 4.63228L21.9979 4.63338L21.8701 4.71307L21.6008 4.88673C21.0657 5.23132 20.4926 5.5748 19.8521 5.85839C18.4245 6.35685 16.8104 6.60086 14.7354 6.60086C14.5904 6.60086 14.442 6.59867 14.2901 6.59592C13.0402 6.57998 11.9682 6.486 11.017 6.30684C10.9152 6.2876 10.8168 6.26782 10.7218 6.24749C9.94501 6.08316 9.34945 5.87213 8.90407 5.60888C8.40172 5.31046 8.17903 5.00544 8.2101 4.68229C8.21183 4.6735 8.21356 4.6658 8.21356 4.65866C8.28088 4.14426 8.89716 3.74416 10.1384 3.39848C10.4405 3.31549 10.7564 3.24515 11.0861 3.1825C11.1327 3.1737 11.1793 3.16546 11.2259 3.15777C12.1477 2.99784 13.1973 2.91815 14.4005 2.91815L14.7751 2.92145C16.6861 2.94453 18.1604 3.13468 19.336 3.50565L23.0233 1.39802C22.1412 1.21007 21.1451 1.04849 20.0472 0.917142C20.0058 0.912196 19.9626 0.9067 19.9195 0.902304C19.7883 0.887465 19.6588 0.872077 19.5241 0.858337C18.3572 0.734133 17.1332 0.657742 15.8731 0.623119C15.842 0.62147 15.8075 0.620371 15.7764 0.619272C15.583 0.615425 15.3862 0.60773 15.1929 0.604983C14.9823 0.602235 14.77 0.601136 14.5628 0.600586H14.4437C12.1253 0.603334 9.97091 0.754467 8.00122 1.05399C5.79504 1.39253 4.00662 1.8855 2.68083 2.52081C1.3585 3.15612 0.63692 3.86122 0.533343 4.61799C0.524712 4.68284 0.519533 4.74714 0.519533 4.81034C0.517807 5.86883 1.72965 6.79981 4.13954 7.58131C6.65473 8.40128 9.92603 8.84314 13.8533 8.89535C14.1053 8.89864 14.3539 8.90084 14.6025 8.90084C16.8242 8.90084 18.8802 8.77499 20.7239 8.52328C21.1848 8.46063 21.6319 8.38699 22.0894 8.3051C22.338 8.25949 22.5727 8.21112 22.8058 8.15946L22.9784 8.12264L23.2684 8.05944C23.6171 7.97975 23.9434 7.89347 24.261 7.80169L24.3715 7.76816C24.558 7.71156 24.7444 7.6544 24.9205 7.5956L25.5816 7.35763L25.8337 7.25706L25.9511 7.2021L26.0685 7.14824C27.0507 6.62285 30.2478 4.71087 30.2478 4.71087V4.70702L30.4377 4.59051L30.5965 4.49928C31.0678 4.22614 31.4078 4.03214 31.8584 3.82825L31.8705 3.8222C32.9218 3.33693 34.7292 2.99124 36.8594 2.93299C40.4328 2.83516 43.5643 3.58259 43.8526 4.6026C44.1391 5.62262 41.4738 6.52887 37.9004 6.62724C37.1563 6.64758 36.433 6.63164 35.7512 6.58383L35.7339 6.58603C33.1117 6.41236 31.4424 5.80343 30.6189 5.53139L27.1802 7.54449C27.1802 7.54449 28.2487 7.88742 28.9807 8.05889C29.7144 8.22981 30.6621 8.39798 31.4182 8.5024C33.2532 8.75191 35.2488 8.90139 37.4533 8.90139C37.7088 8.90139 37.657 8.90139 37.9228 8.89809C41.8466 8.84588 45.3441 8.3672 47.8662 7.54723C50.2553 6.76848 51.5518 5.87927 51.5639 4.82683V4.7955C51.5621 4.73725 51.557 4.67844 51.5501 4.61909Z" fill="#8C8888"/>
<path d="M64.7041 8.68391C62.9208 8.68391 61.3033 8.61797 59.8515 8.48607C58.3997 8.35417 57.1603 8.14588 56.1331 7.8601C55.1025 7.57432 54.3084 7.2105 53.7491 6.76919C53.1898 6.32788 52.9102 5.79589 52.9102 5.17597V1.0459H61.0703V5.14299C61.0703 5.60738 61.419 5.94373 62.1147 6.15366C62.8121 6.36415 63.6977 6.46912 64.7714 6.46912C65.8693 6.46912 66.7601 6.3713 67.4471 6.1751C68.1308 5.9789 68.476 5.65355 68.476 5.1963V1.0459H76.6361V5.12156C76.6361 5.76346 76.3496 6.30919 75.7782 6.7582C75.2068 7.20775 74.4006 7.57487 73.3631 7.86065C72.3204 8.14643 71.0654 8.35417 69.5895 8.48662C68.1135 8.61797 66.4856 8.68391 64.7041 8.68391Z" fill="#8C8888"/>
</svg>
