<svg width="212" height="26" viewBox="0 0 212 26" fill="none" xmlns="http://www.w3.org/2000/svg">
<path d="M1.37891 25.35H211.338V0.311523H1.37891" fill="#8C8888"/>
<path d="M1.37891 0.311523H211.338V25.35H1.37891" fill="#8C8888"/>
<path d="M1.37891 0.311523H211.338V25.35H1.37891" fill="#8C8888"/>
<path d="M0.996094 0.174805H211.339V25.3496H0.996094" fill="#8C8888"/>
<path d="M1.37891 0.311523H212V25.4864H1.37891" fill="#8C8888"/>
<path d="M0.996094 0.174805H211.339V25.3496H0.996094" fill="#8C8888"/>
<path d="M112.248 12.7981C110.835 12.7981 109.817 12.9453 108.785 13.0952V16.4901C109.775 16.5209 110.338 16.5209 111.279 16.5209C114.671 16.5209 115.135 16.0267 115.135 15.3377V13.7159C115.135 13.207 114.604 12.7981 112.248 12.7981ZM89.7305 12.6127C87.3776 12.6127 86.8427 13.0234 86.8427 13.5318V13.8172H92.6182V13.5318C92.6175 13.0231 92.0805 12.6127 89.7305 12.6127ZM46.1101 16.1466C46.1101 16.5484 46.7063 16.7575 48.0241 16.7575C49.4381 16.7575 50.2739 16.6112 51.3061 16.4602V15.6555H48.215C46.7523 15.6557 46.1101 15.7417 46.1101 16.1466ZM134.153 12.7981C131.797 12.7981 130.981 13.207 130.981 13.7154V15.5734C130.981 16.0839 131.797 16.4932 134.153 16.4932C136.503 16.4932 137.326 16.0834 137.326 15.5734V13.7154C137.325 13.207 136.503 12.7981 134.153 12.7981ZM34.5618 18.229H27.6369V12.899H24.1738V11.0618H27.6369V9.95907C27.6369 8.46053 29.5914 7.56934 35.1413 7.56934H39.7648V9.40649H36.877C34.715 9.40649 34.5715 9.66327 34.5715 10.1422L34.5618 11.0616H39.7982L39.1853 12.8987H34.5618V18.229ZM58.2358 18.2428H52.4631L52.2151 17.7784C49.5781 18.2428 47.2252 18.3182 45.6734 18.3182C41.4385 18.3182 39.186 17.419 39.186 16.1754C39.186 14.7086 41.8146 14.1846 46.5189 14.1846H51.3068V13.8675C51.3068 13.1183 51.0366 12.8987 47.4147 12.8987H41.4914L42.071 11.0616H48.5444C56.4931 11.0616 58.2358 11.8605 58.2358 13.8824V18.2428ZM77.8666 13.0338C74.2746 12.8378 73.2424 12.7947 71.515 12.7947C68.4099 12.7947 67.471 13.0127 67.471 13.8507V15.4366C67.471 16.2748 68.4099 16.4934 71.515 16.4934C73.2424 16.4934 74.2746 16.4502 77.8666 16.2535V18.0447C74.719 18.2696 72.6699 18.3284 70.9383 18.3284C63.5001 18.3284 60.5462 17.085 60.5462 15.2885V14.0015C60.5462 12.204 63.5001 10.958 70.9383 10.958C72.6699 10.958 74.7204 11.0177 77.8666 11.2423V13.0338ZM99.5431 15.2885H86.842V15.4366C86.842 16.2748 87.7809 16.4934 90.8846 16.4934C93.6763 16.4934 95.3786 16.4502 98.9643 16.2535V18.0447C95.5067 18.2696 93.7055 18.3284 90.3107 18.3284C82.8732 18.3284 79.9158 17.085 79.9158 15.2885V13.817C79.9158 12.2457 82.1112 10.958 89.7312 10.958C97.3525 10.958 99.5438 12.2304 99.5438 13.817L99.5431 15.2885ZM122.06 15.3222C122.06 17.0584 120.5 18.3248 111.046 18.3248C107.635 18.3248 105.629 18.229 101.86 18.0445V8.12081L108.785 7.75383V11.2248C110.28 11.0478 112.218 10.9583 113.981 10.9583C120.907 10.9583 122.061 11.9457 122.061 13.5314V15.3222H122.06ZM144.258 15.3601C144.258 16.8578 142.313 18.3106 134.176 18.3106C126.035 18.3106 124.054 16.8578 124.054 15.3601V13.9141C124.054 12.416 126.035 10.9629 134.176 10.9629C142.313 10.9629 144.258 12.416 144.258 13.9141V15.3601ZM166.438 15.3601C166.438 16.8578 164.491 18.3106 156.357 18.3106C148.215 18.3106 146.233 16.8578 146.233 15.3601V13.9141C146.233 12.416 148.215 10.9629 156.357 10.9629C164.491 10.9629 166.438 12.416 166.438 13.9141V15.3601ZM189.204 18.229H181.696L175.349 14.8605V18.229H168.424V8.12081L175.349 7.75383V14.2611L181.696 11.0618H189.204L182.273 14.5529L189.204 18.229ZM156.333 12.7981C153.981 12.7981 153.165 13.207 153.165 13.7154V15.5734C153.165 16.0839 153.981 16.4932 156.333 16.4932C158.683 16.4932 159.514 16.0834 159.514 15.5734V13.7154C159.514 13.207 158.683 12.7981 156.333 12.7981ZM193.158 16.9722C194.324 16.9722 195.253 17.2744 195.253 17.6518C195.253 18.0352 194.324 18.3343 193.148 18.3343C191.981 18.3343 191.033 18.035 191.033 17.6518C191.033 17.2744 191.981 16.9722 193.148 16.9722H193.158ZM193.147 17.0779C192.208 17.0779 191.439 17.3347 191.439 17.6523C191.439 17.9753 192.208 18.2295 193.158 18.2295C194.106 18.2326 194.865 17.9753 194.865 17.6551C194.865 17.3352 194.106 17.0779 193.158 17.0779H193.147ZM192.748 18.0481H192.37V17.2893C192.568 17.2802 192.758 17.2715 193.042 17.2715C193.404 17.2715 193.64 17.2953 193.783 17.3287C193.925 17.3622 194 17.4134 194 17.486C194 17.5855 193.793 17.6461 193.537 17.6704V17.6764C193.746 17.6886 193.888 17.7483 193.934 17.86C193.991 17.9782 194.049 18.0237 194.087 18.0481H193.688C193.631 18.0241 193.573 17.9541 193.528 17.8549C193.47 17.7578 193.319 17.7214 193.014 17.7214H192.749V18.0481H192.748ZM192.748 17.6279H193.024C193.335 17.6279 193.602 17.5915 193.602 17.4979C193.602 17.431 193.45 17.3647 193.024 17.3647C192.9 17.3647 192.813 17.368 192.748 17.3706V17.6279Z" fill="white"/>
</svg>
