<svg width="18" height="12" viewBox="0 0 18 12" fill="none" xmlns="http://www.w3.org/2000/svg">
<path d="M0.960496 6.00912H4.68744V10.8938C4.68744 10.9902 4.9329 11.0684 5.23583 11.0684H11.555C11.8579 11.0684 12.1034 10.9902 12.1034 10.8938V6.03213H16.3878C16.6664 6.03213 16.9008 5.96557 16.9326 5.87748L17.5833 4.07919C17.6012 4.02972 17.5519 3.98017 17.448 3.94305C17.3439 3.9059 17.195 3.88464 17.0387 3.88464H12.1036V2.75738C12.1036 2.41757 12.6783 2.24526 13.8119 2.24526C13.9735 2.24526 17.0387 2.24526 17.0387 2.24526C17.3416 2.24526 17.587 2.16708 17.587 2.07067V0.420017C17.587 0.323576 17.3416 0.245433 17.0387 0.245433H12.5918C12.5604 0.244944 12.4908 0.244141 12.3881 0.244141C11.6165 0.244141 8.93459 0.292361 6.81606 0.912832C4.46875 1.60041 4.79504 2.42368 4.87302 2.56642V3.8846H0.960496C0.657567 3.8846 0.412109 3.96275 0.412109 4.05919V5.8345C0.412109 5.93094 0.657567 6.00912 0.960496 6.00912Z" fill="#91E7DE"/>
</svg>
