<svg width="183" height="20" viewBox="0 0 183 20" fill="none" xmlns="http://www.w3.org/2000/svg">
<path d="M176.963 11.8847L182.018 12.9577C180.378 13.7271 176.453 15.0472 169.668 15.0472C161.242 15.0472 154.967 12.9718 154.967 10.3317C154.967 7.52217 161.308 5.61621 168.958 5.61621C176.652 5.61621 180.422 7.56452 181.641 8.61633L182.307 9.15282L162.484 11.7647C163.991 12.7106 166.342 13.1906 169.668 13.1906C172.994 13.1906 175.3 12.6683 176.963 11.8847ZM161.419 10.1835L174.657 8.4328C173.925 7.84689 171.752 7.4304 169.158 7.4304C165.854 7.4304 161.264 8.3622 161.419 10.1835Z" fill="#8C8888"/>
<path d="M145.41 0.808594H151.796V14.6162H145.41V0.808594Z" fill="#8C8888"/>
<path d="M135.345 5.98351H141.509V14.3697C141.509 17.8499 135.056 19.2829 127.429 19.2829C120.245 19.2829 115.921 17.744 114.302 16.4945L119.956 15.7463C120.976 16.5157 123.438 17.4263 127.429 17.4263C132.329 17.4263 135.345 16.4592 135.345 14.6521V13.9744H135.123C133.66 14.5391 130.866 15.0474 127.318 15.0474C119.912 15.0474 113.127 12.9932 113.127 10.346C113.127 7.68475 119.912 5.60938 127.318 5.60938C130.844 5.60938 133.66 6.11057 135.123 6.66118H135.345V5.98351ZM135.788 10.346C135.788 8.68009 132.307 7.46592 127.872 7.46592C123.393 7.46592 119.624 8.68009 119.624 10.346C119.624 11.9908 123.393 13.1838 127.872 13.1838C132.307 13.1909 135.788 11.9908 135.788 10.346Z" fill="#8C8888"/>
<path d="M78.069 10.3104C78.069 13.0282 71.417 15.0259 63.2571 15.0259C55.0973 15.0259 48.4453 13.0211 48.4453 10.3104C48.4453 7.57856 55.0973 5.58789 63.2571 5.58789C71.417 5.58789 78.069 7.57856 78.069 10.3104ZM71.5943 10.3104C71.5943 8.61625 67.7362 7.45149 63.2571 7.45149C58.7781 7.45149 54.9199 8.61625 54.9199 10.3104C54.9199 11.9905 58.7781 13.1694 63.2571 13.1694C67.7362 13.1694 71.5943 11.9905 71.5943 10.3104Z" fill="#8C8888"/>
<path d="M110.421 10.3317C110.421 13.0495 103.769 15.0472 95.6087 15.0472C87.4489 15.0472 80.7969 13.0495 80.7969 10.3317C80.7969 7.59982 87.4489 5.61621 95.6087 5.61621C103.769 5.61621 110.421 7.59276 110.421 10.3317ZM103.924 10.3317C103.924 8.63751 100.066 7.47276 95.5865 7.47276C91.1075 7.47276 87.2493 8.63751 87.2493 10.3317C87.2493 12.0118 91.1075 13.1906 95.5865 13.1906C100.088 13.1906 103.924 12.0047 103.924 10.3317Z" fill="#8C8888"/>
<path d="M24.0994 12.9786C14.8087 12.9786 7.53586 10.5927 7.53586 7.63489C7.53586 4.67712 14.8087 2.29114 24.0994 2.29114C29.1106 2.29114 32.7692 2.9194 35.4744 3.72414L39.9312 2.30526C36.1617 1.15463 31.1284 0.279297 24.0994 0.279297C11.3719 0.279297 0.662109 3.58296 0.662109 7.63489C0.662109 11.6868 11.3719 14.9905 24.0994 14.9905C30.9732 14.9905 36.1617 14.2704 40.2195 12.9292C44.3881 11.6021 45.6741 9.7385 45.6741 8.22785C45.6741 7.75489 45.4967 7.26781 45.2972 6.9078H24.0994V8.87023H39.1995C38.756 10.0985 37.5365 10.9386 35.7404 11.5103C33.5674 12.2092 30.1306 12.9786 24.0994 12.9786Z" fill="#8C8888"/>
</svg>
