<svg width="34" height="12" viewBox="0 0 34 12" fill="none" xmlns="http://www.w3.org/2000/svg">
<path d="M7.91496 3.77148H1.0894C0.786474 3.77148 0.541016 3.84966 0.541016 3.94607V10.9269C0.541016 11.0234 0.786474 11.1015 1.0894 11.1015H7.91496C8.21789 11.1015 8.46335 11.0234 8.46335 10.9269V3.94607C8.46335 3.84966 8.21789 3.77148 7.91496 3.77148Z" fill="#91E7DE"/>
<path d="M4.50401 0.300781C2.02048 0.300781 0 0.943321 0 1.7331C0 2.52324 2.02048 3.16602 4.50401 3.16602C6.98557 3.16602 9.00441 2.5232 9.00441 1.7331C9.00452 0.943321 6.98557 0.300781 4.50401 0.300781Z" fill="#91E7DE"/>
<path d="M25.275 3.59766C22.5336 3.59766 20.5071 3.97284 19.278 4.39914V3.94574C19.278 3.84934 19.0325 3.77116 18.7296 3.77116H12.1929C11.89 3.77116 11.6445 3.84934 11.6445 3.94574V10.9266C11.6445 11.023 11.89 11.1012 12.1929 11.1012H19.0036C19.3065 11.1012 19.5519 11.023 19.5519 10.9266V7.47269C19.5519 6.30881 20.545 5.85538 23.0934 5.85538C25.8689 5.85538 26.0895 6.58228 26.0895 7.53257V10.9266C26.0895 11.0231 26.3349 11.1012 26.6379 11.1012H33.451C33.754 11.1012 33.9994 11.0231 33.9994 10.9266V7.09751C33.9994 5.36686 32.9629 3.59766 25.275 3.59766Z" fill="#91E7DE"/>
</svg>
