<svg width="34" height="12" viewBox="0 0 34 12" fill="none" xmlns="http://www.w3.org/2000/svg">
<path d="M25.8643 0.488537C36.3013 0.91626 33.2381 5.73104 32.9478 8.06482C32.7864 9.34806 32.0665 10.3404 27.9067 10.7853C22.4355 11.3704 14.3739 11.1753 8.79529 10.9153C5.06536 10.7442 2.14169 10.3883 1.10983 9.15641C-0.524019 7.2093 -0.0617938 4.57434 0.647608 2.5896C0.669183 2.55197 0.701311 2.52457 0.755015 2.50061C0.851634 -0.469567 20.436 0.266126 25.8643 0.488537Z" fill="#91E7DE"/>
<path d="M30.1969 2.29828C30.2185 1.48039 27.0153 1.22035 25.2953 1.72341C24.8331 1.86026 24.6181 2.069 24.5859 2.29485C24.7578 2.58572 25.3061 2.87316 26.0155 3.03741C27.6817 3.41041 30.1753 2.91422 30.1969 2.29828Z" fill="white" fill-opacity="0.44"/>
<path d="M25.4347 3.88989C21.7587 2.11733 13.4605 1.94277 8.99979 3.51346C5.95792 4.58452 5.74288 6.36738 8.03243 7.63353C8.16141 7.64719 8.2796 7.67116 8.38724 7.71222C12.1064 9.0331 18.5126 9.51219 23.1132 8.3145C27.2191 7.24344 28.4229 5.33052 25.4347 3.88989Z" fill="white" fill-opacity="0.44"/>
<path d="M10.7836 6.32013C12.0842 7.48362 16.7062 8.40753 20.393 7.68893C27.8418 6.238 19.0924 2.29591 12.9547 4.04451C10.7836 4.4517 9.93439 5.55696 10.7836 6.32013Z" fill="#91E7DE"/>
</svg>
