<svg width="34" height="10" viewBox="0 0 34 10" fill="none" xmlns="http://www.w3.org/2000/svg">
<path d="M33.2295 1.56669C32.6954 1.64211 32.1463 1.70577 31.5851 1.75744C32.2495 1.51826 32.756 1.23683 33.0651 0.928868C33.1344 0.859838 33.0626 0.784278 32.8844 0.73913C32.7064 0.693948 32.4591 0.688536 32.2631 0.725513C31.0714 0.950517 29.7858 1.11222 28.4377 1.20677C27.0798 0.784348 25.2355 0.543945 23.3288 0.543945C19.3042 0.543945 16.0299 1.58632 16.0299 2.86755C16.0299 2.96846 16.05 3.06881 16.0897 3.16777C11.0955 3.02817 6.45257 2.2467 3.26424 1.0016C3.15062 0.957221 2.97557 0.933303 2.79636 0.937877C2.61704 0.942346 2.45592 0.974539 2.36533 1.02402C1.71867 1.37727 1.3768 1.78129 1.3768 2.19237C1.3768 2.75226 2.00471 3.28348 3.11387 3.69857C2.77662 3.66139 2.44934 3.61491 2.13698 3.55971C1.96928 3.53 1.76462 3.53045 1.59802 3.56086C1.43131 3.59128 1.32679 3.64721 1.3224 3.70835C1.32164 3.71865 1.32164 3.72895 1.32164 3.73939C1.32164 4.57513 2.7345 5.32755 4.8946 5.73765C4.70902 5.73175 4.52356 5.72319 4.3393 5.71198C4.14934 5.70043 3.954 5.72162 3.8259 5.76775C3.69758 5.81384 3.65513 5.87808 3.71425 5.93674C4.5138 6.73145 6.57233 7.31599 9.06091 7.49421C6.99689 7.90577 4.63653 8.12135 2.15869 8.12135C1.64167 8.12135 1.12169 8.11168 0.612791 8.09251C0.359985 8.08294 0.118256 8.13046 0.0321587 8.207C-0.053938 8.28357 0.0373136 8.36894 0.252391 8.41283C3.43556 9.0626 7.11622 9.40604 10.8963 9.40604C18.3273 9.40604 22.976 8.29045 25.5671 7.35457C28.7982 6.18762 30.6514 4.643 30.6514 3.11683C30.6514 3.05307 30.6483 2.98868 30.6421 2.9245C31.9169 2.61874 33.0145 2.24869 33.9076 1.82337C34.0432 1.75877 34.0285 1.6734 33.8714 1.61394C33.7144 1.55444 33.4528 1.5352 33.2295 1.56669Z" fill="#91E7DE"/>
</svg>
