<svg width="193" height="18" viewBox="0 0 193 18" fill="none" xmlns="http://www.w3.org/2000/svg">
<path d="M177.898 15.0917H183.415L192.959 7.3917H187.498L183.554 11.2266L179.397 7.3917H173.303L180.56 12.9536L177.898 15.0917ZM150.52 9.21956V13.1665H144.955V7.3917H148.865L150.027 7.89616C151.541 7.49265 153.162 7.257 155.028 7.257C157.53 7.257 159.431 7.49265 160.594 8.07594C162.284 7.58225 164.081 7.257 166.371 7.257C170.668 7.257 173.169 7.96365 173.169 9.88112V13.1665H167.604V10.083C167.604 9.19716 166.476 8.93912 164.679 8.93912C163.623 8.93912 162.743 9.02872 161.756 9.23062C161.827 9.43252 161.862 9.64548 161.862 9.88112V13.1665H156.297V10.083C156.297 9.19716 155.169 8.93912 153.338 8.93912C152.316 8.93912 151.471 9.01767 150.52 9.21956ZM131.11 9.71297H138.261C137.873 8.9618 136.605 8.60281 134.703 8.60281C133.082 8.60281 131.533 8.90566 131.11 9.71297ZM135.091 13.2788C129.737 13.2788 125.439 12.4378 125.439 10.2174C125.439 8.14286 129.596 7.24594 134.386 7.24594C140.162 7.24594 142.734 8.53532 142.734 10.5651H131.075C131.463 11.563 133.4 11.8547 135.972 11.8547C138.459 11.8547 140.404 11.6594 141.909 11.337L141.154 12.7423C139.717 13.0956 137.993 13.2788 135.091 13.2788ZM114.368 11.7875C115.636 11.7875 116.587 11.7201 117.573 11.4847V8.97286C116.693 8.80442 115.813 8.72616 114.545 8.72616C111.832 8.72616 110.283 9.30917 110.283 10.2846C110.283 11.238 111.868 11.7875 114.368 11.7875ZM118.665 12.7406C117.221 13.0883 115.566 13.3012 113.206 13.3012C108.239 13.3012 104.647 12.3258 104.647 10.3184C104.647 8.32236 108.768 7.24594 114.051 7.24594C115.284 7.24594 116.482 7.30209 117.573 7.4365V4.98535H123.139V13.1665H119.616L118.665 12.7406ZM81.0664 9.74643V5.46656H86.8427V9.71297C86.8427 11.238 88.9911 11.5519 91.95 11.5519C95.1557 11.5519 96.8106 11.1033 96.8106 9.71297V5.46656H102.623V9.74643C102.623 12.2696 99.171 13.3236 91.6686 13.3236C84.6943 13.3236 81.0664 12.4154 81.0664 9.74643Z" fill="#8C8888"/>
<path d="M66.3455 10.0679C66.1112 10.008 65.8475 9.96777 65.5607 9.95047C63.8666 10.4881 61.7993 11.0544 59.9635 11.4349C59.1164 11.6142 58.0511 11.7038 57.3457 11.7038C55.7219 11.7038 55.0165 11.2109 54.8045 10.4274C54.5221 9.37512 54.3315 8.11467 54.3315 6.16656C54.3315 4.16856 52.9073 2.81027 49.1129 2.70365C48.9525 2.69911 48.7904 2.696 48.6212 2.696C46.292 2.696 45.1625 3.07654 43.6804 4.03953C42.4102 4.86783 40.4338 6.07696 36.764 8.3608C33.5877 10.3313 30.0587 12.0778 27.0232 13.2869C26.1779 13.6221 25.5099 13.8523 24.8819 13.9834C24.4624 14.0713 24.0598 14.1152 23.6358 14.1152C22.4378 14.1152 21.5631 13.7934 21.271 13.0439C21.2015 12.8658 21.165 12.6636 21.165 12.4359C21.165 10.8911 23.0007 8.3832 26.1761 4.68862C28.5053 2.00182 27.5175 0.166016 22.4351 0.166016C22.4271 0.166016 22.4191 0.166016 22.4111 0.166016C22.4004 0.166016 22.3897 0.166016 22.3781 0.166016L22.3746 0.166299C21.2238 0.170553 20.2698 0.303262 19.3506 0.533518C18.4456 0.760371 17.5398 1.25037 16.6945 1.9091C15.7414 2.65119 9.94646 6.35173 0.723138 8.25815C0.614472 8.98295 1.90333 9.70746 4.5149 9.78601C6.89221 9.85775 8.58011 9.53874 10.7534 9.07397C10.5904 9.30508 10.4399 9.52116 10.3027 9.7188C10.1406 9.95218 10.0026 10.1535 9.89213 10.316C9.72646 10.5579 9.62135 10.7136 9.59018 10.7567C9.28823 11.1976 9.07267 11.6164 8.93283 12.014C7.63239 15.7148 13.0203 17.541 19.3301 17.541C20.3847 17.541 21.4295 17.501 22.4672 17.4171C29.4192 16.8559 36.112 14.3171 44.034 8.47281C43.9138 9.10857 43.9013 9.70235 43.9877 10.2533C44.5097 13.6028 48.6711 14.6078 54.5507 14.6078C58.9971 14.6078 63.1612 13.8691 65.2784 12.9509C66.8318 12.3015 67.4669 11.585 67.4669 11.0252C67.4669 10.5908 67.034 10.244 66.3455 10.0679Z" fill="#8C8888"/>
</svg>
