<svg width="30" height="12" viewBox="0 0 30 12" fill="none" xmlns="http://www.w3.org/2000/svg">
<path d="M14.6015 4.33315C15.4755 4.33315 16.1395 4.23063 16.6135 4.02497C16.9755 3.87407 17.1435 3.63212 17.1435 3.31185V2.2549C17.1435 1.93463 16.9755 1.69904 16.6135 1.54814C16.1375 1.34375 15.4735 1.2406 14.6015 1.2406C13.7455 1.2406 13.0815 1.34312 12.6115 1.54814C12.2495 1.69968 12.0795 1.93526 12.0795 2.25553V3.31249C12.0795 3.63276 12.2495 3.86834 12.6115 4.02561C13.0815 4.23063 13.7455 4.33315 14.6015 4.33315ZM13.7855 2.14666C13.7855 1.86905 14.0515 1.73024 14.6015 1.73024C15.1715 1.73024 15.4175 1.86905 15.4175 2.14666V3.415C15.4175 3.69324 15.1715 3.83778 14.6015 3.83778C14.0515 3.83778 13.7855 3.69261 13.7855 3.415V2.14666ZM18.6995 4.10966C18.6035 4.01861 18.5495 3.87407 18.5495 3.65695V1.2769H20.2755V3.49331C20.2755 3.62066 20.2755 3.69261 20.2955 3.70534C20.3335 3.79003 20.4655 3.83778 20.6935 3.83778C21.0335 3.83778 21.3935 3.7531 21.7735 3.578V1.2769H23.4995V4.29112H21.7735V3.95876C21.0915 4.21217 20.4475 4.33315 19.8175 4.33315C19.2675 4.33315 18.8695 4.2612 18.6995 4.10966ZM25.2655 7.76442V8.04203H23.5575V7.76442C23.5575 7.49254 23.8435 7.3531 24.4115 7.3531C24.9795 7.35374 25.2655 7.49254 25.2655 7.76442ZM6.70745 1.37368C6.29145 0.999289 5.87545 0.618531 5.47345 0.244141H7.48745L8.83345 1.83275L10.1235 0.244141H12.0595L9.76345 2.65412V4.29112H7.86745V2.65412C7.69545 2.35805 7.31545 1.93526 6.70745 1.37368ZM28.5655 5.83771C28.2235 5.36017 26.9895 5.00998 25.5295 4.95586C22.0375 4.83488 18.5075 4.83488 14.9975 4.83488C11.4875 4.83488 7.95745 4.83488 4.48545 4.95586C3.00945 5.00998 1.79345 5.36017 1.43345 5.83771C0.959453 6.51391 0.939453 7.25123 0.939453 7.95162C0.939453 8.64628 0.939453 9.38869 1.43345 10.0655C1.77545 10.5431 3.00945 10.8933 4.46945 10.9416C7.95945 11.0684 11.4895 11.0684 14.9995 11.0684C18.5095 11.0684 22.0395 11.0684 25.5315 10.9416C26.9895 10.8933 28.2055 10.5431 28.5675 10.0655C29.0415 9.38933 29.0615 8.64628 29.0615 7.95162C29.0595 7.25123 29.0595 6.51391 28.5655 5.83771ZM8.96545 6.44769H6.93745V9.88469H5.03945V6.44769H3.04545V5.87973H8.96545V6.44769ZM14.0895 9.88469H12.3995V9.55869C11.7155 9.80638 11.0715 9.92735 10.4635 9.92735C9.91545 9.92735 9.51545 9.85477 9.36345 9.70387C9.26745 9.61345 9.21145 9.47401 9.21145 9.26326V6.90167H10.9015V9.10026C10.9015 9.2276 10.9015 9.29382 10.9195 9.31228C10.9595 9.39633 11.0915 9.43899 11.3175 9.43899C11.6615 9.43899 12.0215 9.35494 12.3995 9.18558V6.9023H14.0895V9.88469ZM20.5415 8.99074C20.5415 9.26899 20.5015 9.46764 20.3695 9.59435C20.1615 9.81211 19.6855 9.92672 19.0215 9.92672C18.4155 9.92672 17.8255 9.81784 17.2555 9.59435V9.88469H15.5695V5.87973H17.2555V7.19074C17.8055 6.97298 18.3955 6.86474 19.0215 6.86474C19.6855 6.86474 20.1615 6.97935 20.3695 7.20284C20.5015 7.32381 20.5415 7.52247 20.5415 7.80071V8.99074ZM26.9535 8.49537H23.5575V9.02067C23.5575 9.29891 23.8435 9.43708 24.4315 9.43708C24.8495 9.43708 25.0955 9.36513 25.1915 9.21996C25.2095 9.19003 25.2295 9.06906 25.2295 8.8513H26.9555V8.93025C26.9555 9.10535 26.9555 9.22633 26.9175 9.28045C26.8775 9.40079 26.7255 9.50967 26.5195 9.60645C26.0615 9.81784 25.3615 9.92672 24.4715 9.92672C23.5795 9.92672 22.9135 9.82421 22.4215 9.61855C22.0615 9.47337 21.8715 9.23779 21.8715 8.91752V7.87266C21.8715 7.55239 22.0435 7.32318 22.4035 7.17164C22.8975 6.96598 23.5615 6.86346 24.4355 6.86346C25.2915 6.86346 25.9535 6.96598 26.4455 7.17164C26.7895 7.32254 26.9595 7.55176 26.9595 7.87266V8.49537H26.9535ZM18.8515 7.75805V9.03276C18.8515 9.30464 18.6035 9.43708 18.1115 9.43708C17.8255 9.43708 17.5415 9.39506 17.2555 9.30464V7.48681C17.5415 7.39576 17.8255 7.35374 18.1115 7.35374C18.6035 7.35374 18.8515 7.49254 18.8515 7.75805Z" fill="#91E7DE"/>
</svg>
