<svg width="183" height="14" viewBox="0 0 183 14" fill="none" xmlns="http://www.w3.org/2000/svg">
<path d="M34.957 11.2379L32.8976 11.2091H14.3855L39.0606 3.448L38.9615 2.80025C38.9228 2.29824 38.2715 1.82015 37.1426 1.46507C36.0136 1.11 34.4937 0.905143 32.8976 0.892967L30.8382 0.86178H0L0.106786 1.50953C0.366122 2.56034 2.79931 3.35683 6.16305 3.41681L8.22249 3.448H26.7422L2.05181 11.2091L2.15859 11.8544C2.27301 12.8932 4.91977 13.7257 8.22249 13.7641L10.2819 13.7953H41.1277L41.0209 13.1475C40.7463 12.0847 38.3513 11.3074 34.957 11.2402V11.2379ZM59.6474 0.86178H59.6169C54.166 0.862735 48.9395 1.54459 45.0868 2.7574C41.2341 3.97022 39.0706 5.61467 39.0721 7.32913C39.0736 9.04359 41.24 10.6877 45.0949 11.8998C48.9498 13.1119 54.1775 13.7929 59.6283 13.7929C65.0792 13.7929 70.3069 13.1119 74.1617 11.8998C78.0166 10.6877 80.183 9.04359 80.1845 7.32913C80.1861 5.61467 78.0226 3.97022 74.1698 2.7574C70.3171 1.54459 65.0906 0.862735 59.6398 0.86178H59.6474ZM68.3504 10.0719C67.2156 10.4471 65.8537 10.747 64.3447 10.9541C62.8358 11.1612 61.2104 11.2712 59.5641 11.2777C57.9179 11.2842 56.2842 11.1871 54.7592 10.992C53.2342 10.7969 51.8487 10.5078 50.6843 10.1417C49.52 9.77563 48.6002 9.33998 47.9792 8.86041C47.3583 8.38083 47.0487 7.86702 47.0686 7.34924C47.0886 6.83145 47.4377 6.32016 48.0955 5.84546C48.7532 5.37076 49.7063 4.94226 50.8986 4.58517C53.2308 3.88668 56.3386 3.50258 59.5588 3.51487C62.7789 3.52715 65.8562 3.93484 68.1339 4.65091C70.4115 5.36699 71.709 6.33472 71.7495 7.34754C71.7899 8.36036 70.5701 9.33805 68.3504 10.0719ZM166.532 0.864178C164.202 0.864729 161.899 1.02093 159.776 1.32243C157.652 1.62394 155.756 2.06387 154.214 2.61312C152.672 2.06149 150.773 1.6197 148.645 1.31727C146.517 1.01485 144.208 0.858741 141.872 0.85938C138.587 0.857909 135.377 1.16719 132.658 1.74704C131.056 1.18806 127.471 0.85938 125.427 0.85938V13.7953L127.487 13.7641C130.919 13.6921 133.413 12.9268 133.551 11.8544L133.65 11.2067V6.67958L133.757 6.03182C133.833 5.54721 134.062 5.11537 134.763 4.73631C135.304 4.44237 136.024 4.18481 136.881 3.97835C137.739 3.77188 138.717 3.62055 139.76 3.533C140.804 3.44545 141.891 3.42339 142.962 3.46808C144.032 3.51277 145.064 3.62334 145.999 3.79347C147.239 4.01961 148.27 4.34381 148.989 4.73391C149.698 5.11777 149.904 5.5472 149.996 6.02942L150.102 6.67958V11.2067L150.202 11.852C150.408 12.9076 152.871 13.6945 156.265 13.7617L158.325 13.7929V6.67958L158.416 6.03182C158.493 5.552 158.722 5.11057 159.439 4.72912C161.719 3.49598 166.753 3.07374 170.674 3.79347C171.915 4.02027 172.946 4.34533 173.664 4.73631C174.366 5.12017 174.579 5.5592 174.663 6.03182L174.77 6.67958V11.2067L174.869 11.852C175.083 12.9148 177.539 13.6993 180.941 13.7617L183 13.7929V6.03182C182.998 5.35205 182.57 4.67906 181.741 4.05131C180.912 3.42355 179.698 2.85333 178.168 2.37321C176.638 1.8931 174.822 1.5125 172.824 1.25316C170.826 0.993828 168.686 0.860835 166.525 0.86178L166.532 0.864178ZM88.2736 2.75466C86.2839 3.34913 84.6926 4.06284 83.5935 4.85374C82.4945 5.64464 81.9098 6.49673 81.874 7.35981C81.8382 8.22289 82.3521 9.07949 83.3852 9.87914C84.4183 10.6788 85.9499 11.4053 87.8896 12.0159C89.8293 12.6265 92.1379 13.1088 94.6795 13.4343C97.221 13.7599 99.944 13.9222 102.688 13.9116C105.432 13.901 108.142 13.7178 110.657 13.3728C113.173 13.0277 115.443 12.5277 117.334 11.9024C121.032 10.6801 123.064 9.05186 122.998 7.3649C122.933 5.67795 120.774 4.06583 116.983 2.87242C113.191 1.679 108.068 0.998749 102.704 0.97675C97.3409 0.954751 92.1625 1.59275 88.2736 2.75466ZM111.53 10.0719C110.39 10.4401 109.028 10.7334 107.524 10.9348C106.021 11.1362 104.405 11.2417 102.77 11.245C101.136 11.2484 99.516 11.1497 98.004 10.9545C96.492 10.7594 95.1183 10.4717 93.9627 10.1082C92.807 9.74471 91.8924 9.31264 91.272 8.83708C90.6515 8.36152 90.3375 7.85193 90.3483 7.33789C90.359 6.82386 90.6942 6.31561 91.3345 5.84265C91.9748 5.3697 92.9074 4.94145 94.0781 4.58277C96.4027 3.8706 99.5255 3.47504 102.77 3.48175C106.015 3.48846 109.121 3.89688 111.416 4.6186C113.711 5.34032 115.009 6.31725 115.03 7.33789C115.052 8.35854 113.794 9.34075 111.53 10.0719Z" fill="#8C8888"/>
</svg>
